nColumns=19
nRows=38
DataType=double
version=3
OpenSimVersion=4.1
endheader
time	ground_force_calcn_r_vx	ground_force_calcn_r_vy	ground_force_calcn_r_vz	ground_force_calcn_r_px	ground_force_calcn_r_py	ground_force_calcn_r_pz	ground_force_calcn_r_mx	ground_force_calcn_r_my	ground_force_calcn_r_mz	ground_force_calcn_l_vx	ground_force_calcn_l_vy	ground_force_calcn_l_vz	ground_force_calcn_l_px	ground_force_calcn_l_py	ground_force_calcn_l_pz	ground_force_calcn_l_mx	ground_force_calcn_l_my	ground_force_calcn_l_mz
4.05	0.258749	465.023	-6.77781	-0.280952	0	-0.420678	-0.00383847	-6.8985	0.100547	-8.55503	390.714	2.19453	-0.247978	0	-0.866078	-0.199077	9.09201	0.0510672
4.06	0.545566	463.042	-6.54145	-0.281642	0	-0.420906	-0.00799982	-6.78973	0.0959195	-8.14789	389.355	1.9565	-0.249444	0	-0.865595	-0.19014	9.08601	0.0456568
4.07	0.926919	461.128	-6.30093	-0.282362	0	-0.421133	-0.0134385	-6.68543	0.0913509	-7.67375	388.226	1.76897	-0.250939	0	-0.865114	-0.179396	9.07588	0.0413547
4.08	1.40948	459.31	-6.0555	-0.283107	0	-0.421359	-0.0202098	-6.5858	0.0868265	-7.14555	387.325	1.63097	-0.252449	0	-0.86464	-0.16713	9.05931	0.0381474
4.09	1.98483	457.617	-5.81029	-0.283873	0	-0.421582	-0.0281537	-6.49103	0.0824155	-6.58392	386.653	1.54181	-0.253956	0	-0.864178	-0.153841	9.03461	0.0360263
4.1	2.6323	456.069	-5.57353	-0.284652	0	-0.421801	-0.0369456	-6.40115	0.0782273	-6.01171	386.209	1.49956	-0.255443	0	-0.863733	-0.140106	9.0008	0.0349481
4.11	3.32328	454.672	-5.35388	-0.285437	0	-0.422012	-0.0461641	-6.31591	0.0743714	-5.44853	385.997	1.50052	-0.256897	0	-0.863308	-0.12644	8.95756	0.0348215
4.12	4.02671	453.435	-5.16018	-0.286222	0	-0.422216	-0.0553685	-6.23486	0.0709541	-4.90633	386.016	1.53938	-0.258308	0	-0.862902	-0.113187	8.90525	0.0355128
4.13	4.7129	452.369	-5.00235	-0.286998	0	-0.422409	-0.0641515	-6.15761	0.0680916	-4.39001	386.272	1.60965	-0.259669	0	-0.862513	-0.100521	8.84468	0.0368571
4.14	5.35396	451.501	-4.89202	-0.287761	0	-0.422593	-0.0721438	-6.08391	0.0659193	-3.90156	386.771	1.70458	-0.260981	0	-0.862139	-0.0885391	8.77709	0.0386825
4.15	5.92338	450.863	-4.84137	-0.288504	0	-0.422762	-0.079008	-6.01376	0.0645758	-3.44448	387.525	1.81864	-0.262242	0	-0.861777	-0.0773654	8.70407	0.040848
4.16	6.39745	450.495	-4.8613	-0.28922	0	-0.422919	-0.0844597	-5.94749	0.0641793	-3.02624	388.546	1.94818	-0.263453	0	-0.861421	-0.0671953	8.62734	0.0432578
4.17	6.75594	450.435	-4.9599	-0.289905	0	-0.42306	-0.0882763	-5.8856	0.0648084	-2.65668	389.843	2.09197	-0.264611	0	-0.861074	-0.0582544	8.5483	0.0458718
4.18	6.98325	450.711	-5.14048	-0.290553	0	-0.423187	-0.0903068	-5.82856	0.0664762	-2.34409	391.419	2.25116	-0.26572	0	-0.860732	-0.0507123	8.46802	0.0487018
4.19	7.07033	451.335	-5.40071	-0.291163	0	-0.4233	-0.090491	-5.7765	0.069122	-2.09253	393.273	2.42798	-0.266785	0	-0.860399	-0.044627	8.38726	0.0517812
4.2	7.01758	452.296	-5.73444	-0.291734	0	-0.423398	-0.0888909	-5.72917	0.0726375	-1.8987	395.397	2.62539	-0.26781	0	-0.860072	-0.0398874	8.30638	0.0551535
4.21	6.83653	453.561	-6.13418	-0.292269	0	-0.423487	-0.0857061	-5.68606	0.076901	-1.75117	397.782	2.84755	-0.2688	0	-0.859752	-0.0362111	8.22545	0.0588825
4.22	6.54856	455.088	-6.59176	-0.292772	0	-0.423566	-0.0812506	-5.64645	0.0817866	-1.63229	400.419	3.09975	-0.269762	0	-0.859438	-0.0331994	8.14419	0.0630463
4.23	6.18202	456.821	-7.09716	-0.293251	0	-0.423641	-0.0759106	-5.60942	0.0871478	-1.52077	403.292	3.38781	-0.270703	0	-0.859132	-0.0304009	8.06198	0.0677238
4.24	5.76979	458.716	-7.63844	-0.293711	0	-0.423716	-0.0701103	-5.57398	0.0928168	-1.39475	406.38	3.71704	-0.271629	0	-0.85883	-0.0273816	7.97803	0.0729726
4.25	5.34537	460.738	-8.20363	-0.294159	0	-0.423793	-0.0642664	-5.53937	0.0986307	-1.23563	409.661	4.09156	-0.272545	0	-0.858532	-0.0238024	7.89145	0.0788173
4.26	4.93939	462.875	-8.78217	-0.294601	0	-0.423874	-0.0587461	-5.50515	0.10445	-1.03031	413.117	4.51513	-0.273458	0	-0.858238	-0.0194566	7.80138	0.0852646
4.27	4.57846	465.126	-9.36483	-0.295041	0	-0.423963	-0.053855	-5.47114	0.110156	-0.770683	416.737	4.99255	-0.274372	0	-0.857945	-0.0142529	7.7071	0.0923318
4.28	4.28462	467.49	-9.9435	-0.295482	0	-0.42406	-0.0498336	-5.43729	0.115651	-0.452423	420.509	5.52989	-0.275288	0	-0.857655	-0.00818525	7.60786	0.100047
4.29	4.07507	469.952	-10.5114	-0.295928	0	-0.424167	-0.0468547	-5.40346	0.120859	-0.0750559	424.422	6.1334	-0.276207	0	-0.857368	-0.00132682	7.50281	0.108424
4.3	3.9637	472.486	-11.0638	-0.29638	0	-0.424286	-0.0450442	-5.36943	0.125731	0.358713	428.467	6.80985	-0.27713	0	-0.857084	0.00618791	7.39119	0.117472
4.31	3.96183	475.062	-11.6004	-0.29684	0	-0.424417	-0.0444919	-5.33502	0.130274	0.842799	432.643	7.56734	-0.278054	0	-0.856804	0.0141669	7.27245	0.127202
4.32	4.07727	477.65	-12.1251	-0.297309	0	-0.42456	-0.0452425	-5.30013	0.134543	1.36687	436.943	8.41398	-0.278977	0	-0.856531	0.0223553	7.14624	0.137611
4.33	4.31226	480.23	-12.6456	-0.297786	0	-0.424716	-0.0472747	-5.2647	0.138632	1.91636	441.353	9.35575	-0.279894	0	-0.856267	0.0304472	7.01226	0.148645
4.34	4.66125	482.782	-13.1721	-0.298271	0	-0.424883	-0.0504822	-5.22862	0.142656	2.47266	445.845	10.394	-0.280804	0	-0.856012	0.0381018	6.87013	0.160163
4.35	5.11078	485.289	-13.7159	-0.298763	0	-0.425057	-0.0546767	-5.19177	0.146737	3.01578	450.367	11.5236	-0.2817	0	-0.855767	0.0449957	6.71952	0.171933
4.36	5.64176	487.736	-14.2907	-0.299259	0	-0.425238	-0.0596208	-5.15428	0.15102	3.52772	454.861	12.7347	-0.282582	0	-0.855531	0.0508799	6.56041	0.183672
4.37	6.23225	490.107	-14.9117	-0.299757	0	-0.425422	-0.0650624	-5.11654	0.155673	3.99387	459.261	14.0163	-0.283449	0	-0.855303	0.0555984	6.39334	0.195121
4.38	6.86074	492.386	-15.5939	-0.300254	0	-0.425608	-0.0707713	-5.07916	0.160858	4.4037	463.503	15.3565	-0.284298	0	-0.855081	0.0590894	6.21934	0.206055
4.39	7.50914	494.552	-16.3491	-0.300748	0	-0.425791	-0.0765672	-5.04271	0.166704	4.75107	467.514	16.7408	-0.285131	0	-0.854864	0.0613788	6.03979	0.216273
4.4	8.16378	496.586	-17.1846	-0.301237	0	-0.425973	-0.0823269	-5.00777	0.173297	5.03366	471.214	18.1526	-0.285949	0	-0.854647	0.0625583	5.85625	0.225601
4.41	8.81482	498.469	-18.1027	-0.301719	0	-0.426153	-0.087971	-4.97467	0.180663	5.25494	474.524	19.5755	-0.286755	0	-0.85443	0.0627962	5.67053	0.233926
4.42	9.45466	500.181	-19.1004	-0.302193	0	-0.426329	-0.0934412	-4.94333	0.188771	5.42727	477.374	20.9955	-0.287555	0	-0.854208	0.0623561	5.48473	0.241226
